<svg width="512" height="512" viewBox="0 0 512 512" fill="none" xmlns="http://www.w3.org/2000/svg">
  <path
    d="M178 384C118 352 78 289 78 218C78 114 162 30 266 30C307 30 345 43 376 65L373 128C346 103 309 88 268 88C196 88 138 146 138 218C138 265 163 306 201 329L178 384Z"
    fill="currentColor"
  />
  <path
    d="M335 157C309 136 276 128 244 136C187 151 153 209 168 266C174 290 189 311 208 325L250 286C237 281 226 270 222 254C214 225 232 195 261 187C277 183 294 187 307 197L335 157Z"
    fill="currentColor"
  />
  <path
    d="M220 384C248 397 281 402 314 393C387 374 431 300 412 227C408 213 403 199 395 187L347 227C352 235 356 244 358 254C369 298 342 343 298 354C279 359 260 357 243 350L220 384Z"
    fill="currentColor"
  />
  <path
    d="M150 330L150 451C150 458 158 462 164 459L250 414C273 421 298 423 323 416C411 393 464 303 441 215C437 202 432 190 426 178L373 222C377 229 380 237 382 246C397 304 362 364 304 379C279 385 253 381 232 369L150 411V330Z"
    fill="currentColor"
  />
  <circle cx="272" cy="256" r="44" fill="currentColor" />
  <circle cx="404" cy="112" r="58" fill="currentColor" />
</svg>
